<?xml version="1.0" standalone="no"?><!DOCTYPE svg PUBLIC "-//W3C//DTD SVG 1.1//EN" "http://www.w3.org/Graphics/SVG/1.1/DTD/svg11.dtd"><svg t="1711268205808" class="icon" viewBox="0 0 1024 1024" version="1.1" xmlns="http://www.w3.org/2000/svg" p-id="5035" xmlns:xlink="http://www.w3.org/1999/xlink" width="200" height="200"><path d="M740 161c-61.8 0-112 50.2-112 112 0 50.1 33.1 92.6 78.5 106.9v95.9L320 602.4V318.1c44.2-15 76-56.9 76-106.1 0-61.8-50.2-112-112-112s-112 50.2-112 112c0 49.2 31.8 91 76 106.1V706c-44.2 15-76 56.9-76 106.1 0 61.8 50.2 112 112 112s112-50.2 112-112c0-49.2-31.8-91-76-106.1v-27.8l423.5-138.7a50.52 50.52 0 0 0 34.9-48.2V378.2c42.9-15.8 73.6-57 73.6-105.2 0-61.8-50.2-112-112-112z m-504 51a48.01 48.01 0 0 1 96 0 48.01 48.01 0 0 1-96 0z m96 600a48.01 48.01 0 0 1-96 0 48.01 48.01 0 0 1 96 0z m408-491a48.01 48.01 0 0 1 0-96 48.01 48.01 0 0 1 0 96z" p-id="5036"></path></svg>